<svg width="10" height="14" viewBox="0 0 10 14" fill="none" xmlns="http://www.w3.org/2000/svg">
<path d="M1.55302 13.426V0.574005H5.24302C6.86302 0.574005 8.05102 0.904005 8.80702 1.56401C9.57502 2.21201 9.95902 3.13001 9.95902 4.31801C9.95902 5.08601 9.78502 5.77001 9.43702 6.37001C9.08902 6.95801 8.54902 7.42601 7.81702 7.77401C7.09702 8.11001 6.16102 8.27801 5.00902 8.27801H3.65902V13.426H1.55302ZM0.0410156 11.212V9.79001H6.53902V11.212H0.0410156ZM0.0410156 8.27801V6.51401H4.66702V8.27801H0.0410156ZM4.75702 6.51401C5.40502 6.51401 5.95102 6.44801 6.39502 6.31601C6.83902 6.18401 7.18102 5.96201 7.42102 5.65001C7.67302 5.32601 7.79902 4.90601 7.79902 4.39001C7.79902 3.69401 7.58302 3.17801 7.15102 2.84201C6.71902 2.49401 6.03502 2.32001 5.09902 2.32001H3.65902V6.51401H4.75702Z" fill="white" style="fill:white;fill-opacity:1;"/>
</svg>
