<svg width="28" height="27" viewBox="0 0 28 27" fill="none" xmlns="http://www.w3.org/2000/svg">
<path d="M14 0.166666C6.63999 0.166666 0.666656 6.14 0.666656 13.5C0.666656 20.86 6.63999 26.8333 14 26.8333C21.36 26.8333 27.3333 20.86 27.3333 13.5C27.3333 6.14 21.36 0.166666 14 0.166666ZM20.1867 9.23333C19.9867 11.34 19.12 16.46 18.68 18.82C18.4933 19.82 18.12 20.1533 17.7733 20.1933C17 20.26 16.4133 19.6867 15.6667 19.1933C14.4933 18.42 13.8267 17.94 12.6933 17.1933C11.3733 16.3267 12.2267 15.8467 12.9867 15.0733C13.1867 14.8733 16.6 11.7667 16.6667 11.4867C16.6759 11.4443 16.6747 11.4002 16.6631 11.3584C16.6514 11.3166 16.6298 11.2782 16.6 11.2467C16.52 11.18 16.4133 11.2067 16.32 11.22C16.2 11.2467 14.3333 12.4867 10.6933 14.94C10.16 15.3 9.67999 15.4867 9.25332 15.4733C8.77332 15.46 7.86666 15.2067 7.18666 14.98C6.34666 14.7133 5.69332 14.5667 5.74666 14.1C5.77332 13.86 6.10666 13.62 6.73332 13.3667C10.6267 11.6733 13.2133 10.5533 14.5067 10.02C18.2133 8.47333 18.9733 8.20667 19.48 8.20667C19.5867 8.20667 19.84 8.23333 20 8.36667C20.1333 8.47333 20.1733 8.62 20.1867 8.72667C20.1733 8.80667 20.2 9.04667 20.1867 9.23333Z" fill="white" style="fill:white;fill-opacity:1;"/>
</svg>
