<svg width="16" height="16" viewBox="0 0 16 16" fill="none" xmlns="http://www.w3.org/2000/svg">
<path fill-rule="evenodd" clip-rule="evenodd" d="M1.5 7.92003C1.49333 8.03803 1.51 8.18003 1.54333 8.46536L1.81067 10.7507C1.91539 11.6456 2.34511 12.471 3.01821 13.07C3.69132 13.669 4.56096 13.9999 5.462 14H7.87133C8.57927 13.9996 9.27204 13.7949 9.86658 13.4106C10.4611 13.0263 10.9322 12.4787 11.2233 11.8334H12.6667C13.3297 11.8334 13.9656 11.57 14.4344 11.1011C14.9033 10.6323 15.1667 9.9964 15.1667 9.33336C15.1667 8.67032 14.9033 8.03443 14.4344 7.56559C13.9656 7.09675 13.3297 6.83336 12.6667 6.83336H11.1473C11.019 6.76213 10.8798 6.71257 10.7353 6.68669C10.6193 6.66669 10.4753 6.66669 10.1887 6.66669H3.14467C2.858 6.66669 2.71467 6.66669 2.59867 6.68669C2.30383 6.73917 2.03524 6.88938 1.83617 7.11311C1.63711 7.33685 1.51916 7.62109 1.50133 7.92003M11.826 7.83336C11.8296 7.86225 11.8322 7.89114 11.834 7.92003C11.8407 8.03803 11.8247 8.18003 11.7913 8.46536L11.524 10.7507L11.5133 10.8334H12.6667C13.0645 10.8334 13.446 10.6753 13.7273 10.394C14.0086 10.1127 14.1667 9.73119 14.1667 9.33336C14.1667 8.93554 14.0086 8.55401 13.7273 8.2727C13.446 7.9914 13.0645 7.83336 12.6667 7.83336H11.826ZM7.02 0.980028C7.11363 1.07378 7.16623 1.20086 7.16623 1.33336C7.16623 1.46586 7.11363 1.59294 7.02 1.68669C6.93711 1.76991 6.89057 1.88258 6.89057 2.00003C6.89057 2.11748 6.93711 2.23015 7.02 2.31336C7.29048 2.5839 7.44243 2.9508 7.44243 3.33336C7.44243 3.71592 7.29048 4.08282 7.02 4.35336C6.92522 4.44168 6.79985 4.48976 6.67032 4.48748C6.54078 4.48519 6.41719 4.43272 6.32558 4.34111C6.23398 4.2495 6.1815 4.12591 6.17922 3.99638C6.17693 3.86684 6.22501 3.74148 6.31333 3.64669C6.48667 3.47336 6.48667 3.19336 6.31333 3.02003C6.04285 2.74949 5.8909 2.38259 5.8909 2.00003C5.8909 1.61747 6.04285 1.25057 6.31333 0.980028C6.40708 0.886394 6.53417 0.833801 6.66667 0.833801C6.79917 0.833801 6.92625 0.886394 7.02 0.980028ZM4.02 1.98003C4.11363 2.07378 4.16623 2.20086 4.16623 2.33336C4.16623 2.46586 4.11363 2.59294 4.02 2.68669L3.94267 2.76403C3.86401 2.84241 3.81636 2.94661 3.80852 3.05737C3.80068 3.16814 3.83317 3.27801 3.9 3.36669C4.11108 3.64797 4.21354 3.99598 4.18856 4.34676C4.16357 4.69754 4.01282 5.02751 3.764 5.27603L3.68667 5.35336C3.59188 5.44168 3.46652 5.48976 3.33698 5.48748C3.20745 5.48519 3.08386 5.43272 2.99225 5.34111C2.90064 5.2495 2.84817 5.12591 2.84588 4.99638C2.8436 4.86684 2.89168 4.74148 2.98 4.64669L3.05733 4.56936C3.13599 4.49098 3.18364 4.38678 3.19148 4.27601C3.19932 4.16525 3.16683 4.05538 3.1 3.96669C2.88892 3.68542 2.78645 3.33741 2.81144 2.98663C2.83642 2.63585 2.98718 2.30588 3.236 2.05736L3.31333 1.98003C3.40708 1.88639 3.53417 1.8338 3.66667 1.8338C3.79917 1.8338 3.92625 1.88639 4.02 1.98003ZM10.3533 1.98003C10.447 2.07378 10.4996 2.20086 10.4996 2.33336C10.4996 2.46586 10.447 2.59294 10.3533 2.68669L10.276 2.76403C10.1973 2.84241 10.1497 2.94661 10.1419 3.05737C10.134 3.16814 10.1665 3.27801 10.2333 3.36669C10.4444 3.64797 10.5469 3.99598 10.5219 4.34676C10.4969 4.69754 10.3461 5.02751 10.0973 5.27603L10.02 5.35336C9.97422 5.40249 9.91902 5.44189 9.85769 5.46921C9.79636 5.49654 9.73015 5.51124 9.66301 5.51242C9.59588 5.51361 9.52919 5.50126 9.46693 5.47611C9.40468 5.45096 9.34812 5.41353 9.30064 5.36605C9.25316 5.31857 9.21573 5.26202 9.19058 5.19976C9.16544 5.1375 9.15309 5.07081 9.15427 5.00368C9.15546 4.93654 9.17015 4.87034 9.19748 4.809C9.22481 4.74767 9.26421 4.69247 9.31333 4.64669L9.39067 4.56936C9.46932 4.49098 9.51697 4.38678 9.52481 4.27601C9.53265 4.16525 9.50016 4.05538 9.43333 3.96669C9.22225 3.68542 9.11979 3.33741 9.14477 2.98663C9.16976 2.63585 9.32052 2.30588 9.56933 2.05736L9.64667 1.98003C9.74042 1.88639 9.8675 1.8338 10 1.8338C10.1325 1.8338 10.2596 1.88639 10.3533 1.98003Z" fill="#A2A2A2" style="fill:#A2A2A2;fill:color(display-p3 0.6353 0.6353 0.6353);fill-opacity:1;"/>
</svg>
