<svg width="44" height="44" viewBox="0 0 44 44" fill="none" xmlns="http://www.w3.org/2000/svg">
<rect width="44" height="44" rx="12" fill="#EDEDED" fill-opacity="0.35" style="fill:#EDEDED;fill:color(display-p3 0.9294 0.9294 0.9294);fill-opacity:0.35;"/>
<path d="M13.9708 26.273C13.2688 26.273 12.6708 26.156 12.1768 25.922C11.6914 25.6793 11.2971 25.35 10.9938 24.934C10.6904 24.518 10.4694 24.037 10.3308 23.491C10.1921 22.9363 10.1228 22.3513 10.1228 21.736V21.164C10.1228 19.6127 10.5128 18.4383 11.2928 17.641C12.0814 16.835 13.2341 16.432 14.7508 16.432C15.0801 16.432 15.3878 16.4407 15.6738 16.458C15.9598 16.4753 16.2458 16.5013 16.5318 16.536V18.083C16.2458 18.0483 15.9511 18.0223 15.6478 18.005C15.3531 17.9877 15.0324 17.979 14.6858 17.979C13.9578 17.979 13.3858 18.1047 12.9698 18.356C12.5538 18.6073 12.2548 18.9757 12.0728 19.461C11.8994 19.9463 11.8128 20.5487 11.8128 21.268V22.113L11.3968 22.711C11.4054 22.0437 11.5354 21.4933 11.7868 21.06C12.0468 20.618 12.4021 20.2887 12.8528 20.072C13.3034 19.8467 13.8191 19.734 14.3998 19.734C15.0758 19.734 15.6521 19.8683 16.1288 20.137C16.6054 20.4057 16.9694 20.7783 17.2208 21.255C17.4808 21.7317 17.6108 22.2863 17.6108 22.919C17.6108 23.5777 17.4634 24.1627 17.1688 24.674C16.8741 25.1767 16.4538 25.571 15.9078 25.857C15.3704 26.1343 14.7248 26.273 13.9708 26.273ZM13.9318 24.726C14.3391 24.726 14.6858 24.6523 14.9718 24.505C15.2578 24.349 15.4744 24.1367 15.6218 23.868C15.7691 23.5993 15.8428 23.2917 15.8428 22.945C15.8428 22.5897 15.7691 22.2777 15.6218 22.009C15.4831 21.7403 15.2751 21.5323 14.9978 21.385C14.7204 21.2377 14.3868 21.164 13.9968 21.164C13.6241 21.164 13.2818 21.2333 12.9698 21.372C12.6664 21.502 12.4238 21.7013 12.2418 21.97C12.0684 22.23 11.9818 22.555 11.9818 22.945C11.9818 23.283 12.0511 23.5863 12.1898 23.855C12.3371 24.1237 12.5538 24.336 12.8398 24.492C13.1344 24.648 13.4984 24.726 13.9318 24.726ZM23.0803 26.247C22.335 26.247 21.7023 26.1257 21.1823 25.883C20.6623 25.6317 20.2377 25.2937 19.9083 24.869C19.579 24.4357 19.3363 23.9417 19.1803 23.387C19.033 22.8237 18.9593 22.2343 18.9593 21.619V20.891C18.9593 20.0157 19.1067 19.227 19.4013 18.525C19.696 17.823 20.1467 17.2683 20.7533 16.861C21.36 16.445 22.1357 16.237 23.0803 16.237C24.0163 16.237 24.7877 16.445 25.3943 16.861C26.001 17.2683 26.4473 17.823 26.7333 18.525C27.028 19.227 27.1753 20.0157 27.1753 20.891V21.619C27.1753 22.2343 27.0973 22.8237 26.9413 23.387C26.794 23.9417 26.5557 24.4357 26.2263 24.869C25.9057 25.2937 25.4853 25.6317 24.9653 25.883C24.4453 26.1257 23.817 26.247 23.0803 26.247ZM23.0803 24.557C23.8517 24.557 24.4193 24.2927 24.7833 23.764C25.1473 23.2267 25.3293 22.3947 25.3293 21.268C25.3293 20.072 25.143 19.2183 24.7703 18.707C24.3977 18.187 23.8343 17.927 23.0803 17.927C22.3177 17.927 21.7457 18.187 21.3643 18.707C20.9917 19.2183 20.8053 20.0633 20.8053 21.242C20.8053 22.3773 20.9917 23.2137 21.3643 23.751C21.737 24.2883 22.309 24.557 23.0803 24.557ZM31.8795 26.13C31.1775 26.13 30.5795 26.0043 30.0855 25.753C29.5915 25.493 29.2145 25.0943 28.9545 24.557C28.6945 24.0197 28.5645 23.3307 28.5645 22.49C28.5645 21.6233 28.7118 20.917 29.0065 20.371C29.3012 19.825 29.7085 19.422 30.2285 19.162C30.7572 18.902 31.3638 18.772 32.0485 18.772C32.5338 18.772 32.9542 18.8197 33.3095 18.915C33.6735 19.0103 33.9898 19.123 34.2585 19.253L33.6865 20.748C33.3832 20.6267 33.0972 20.527 32.8285 20.449C32.5685 20.371 32.3085 20.332 32.0485 20.332C31.7105 20.332 31.4288 20.4143 31.2035 20.579C30.9782 20.735 30.8092 20.9733 30.6965 21.294C30.5925 21.606 30.5405 22.0003 30.5405 22.477C30.5405 22.945 30.5968 23.335 30.7095 23.647C30.8308 23.9503 31.0042 24.18 31.2295 24.336C31.4548 24.4833 31.7278 24.557 32.0485 24.557C32.4558 24.557 32.8155 24.505 33.1275 24.401C33.4395 24.2883 33.7428 24.1367 34.0375 23.946V25.597C33.7428 25.7877 33.4308 25.922 33.1015 26C32.7808 26.0867 32.3735 26.13 31.8795 26.13Z" fill="#628363" style="fill:#628363;fill:color(display-p3 0.3843 0.5137 0.3882);fill-opacity:1;"/>
</svg>
